# Blender v2.82 (sub 7) OBJ File: 'Dice.blend'
# www.blender.org
mtllib D8.mtl
o D8_Cone
v 0.025253 -0.025253 -0.949495
v -0.025253 -0.025253 -0.949495
v -0.025253 0.025253 -0.949495
v 0.025253 0.025253 -0.949495
v 0.009181 -0.029570 -0.953812
v 0.029570 -0.009181 -0.953812
v 0.009845 -0.009845 -0.963873
v -0.029570 -0.009181 -0.953812
v -0.009181 -0.029570 -0.953812
v -0.009845 -0.009845 -0.963873
v -0.009181 0.029570 -0.953812
v -0.029570 0.009180 -0.953812
v -0.009845 0.009845 -0.963873
v 0.029570 0.009181 -0.953812
v 0.009181 0.029570 -0.953812
v 0.009845 0.009845 -0.963873
v 0.949495 -0.025253 -0.025253
v 0.949495 0.025253 -0.025253
v 0.949495 0.025253 0.025253
v 0.949495 -0.025253 0.025253
v 0.953812 -0.009181 -0.029570
v 0.953812 -0.029570 -0.009181
v 0.963873 -0.009845 -0.009845
v 0.953812 0.029570 -0.009181
v 0.953812 0.009181 -0.029570
v 0.963873 0.009845 -0.009845
v 0.953812 0.009180 0.029570
v 0.953812 0.029570 0.009181
v 0.963873 0.009845 0.009845
v 0.953812 -0.029570 0.009181
v 0.953812 -0.009181 0.029570
v 0.963873 -0.009845 0.009845
v -0.025253 0.025253 0.949495
v -0.025253 -0.025253 0.949495
v 0.025253 -0.025253 0.949495
v 0.025253 0.025253 0.949495
v -0.029570 0.009181 0.953812
v -0.009181 0.029570 0.953812
v -0.009845 0.009845 0.963873
v -0.009181 -0.029570 0.953812
v -0.029570 -0.009181 0.953812
v -0.009845 -0.009845 0.963873
v 0.029570 -0.009181 0.953812
v 0.009180 -0.029570 0.953812
v 0.009845 -0.009845 0.963873
v 0.009180 0.029570 0.953812
v 0.029570 0.009180 0.953812
v 0.009845 0.009845 0.963873
v -0.949495 -0.025253 0.025253
v -0.949495 0.025253 0.025253
v -0.949495 0.025253 -0.025253
v -0.949495 -0.025253 -0.025253
v -0.953812 -0.009181 0.029570
v -0.953812 -0.029570 0.009181
v -0.963873 -0.009845 0.009845
v -0.953812 0.029570 0.009181
v -0.953812 0.009180 0.029570
v -0.963873 0.009845 0.009845
v -0.953812 0.009181 -0.029570
v -0.953812 0.029570 -0.009181
v -0.963873 0.009845 -0.009845
v -0.953812 -0.029570 -0.009181
v -0.953812 -0.009181 -0.029570
v -0.963873 -0.009845 -0.009845
v -0.025253 0.949495 0.025253
v 0.025253 0.949495 0.025253
v 0.025253 0.949495 -0.025253
v -0.025253 0.949495 -0.025253
v -0.009181 0.953812 0.029570
v -0.029570 0.953812 0.009181
v -0.009845 0.963873 0.009845
v 0.029570 0.953812 0.009181
v 0.009181 0.953812 0.029570
v 0.009845 0.963873 0.009845
v 0.009181 0.953812 -0.029570
v 0.029570 0.953812 -0.009181
v 0.009845 0.963873 -0.009845
v -0.029570 0.953812 -0.009181
v -0.009181 0.953812 -0.029570
v -0.009845 0.963873 -0.009845
v 0.025253 -0.949495 -0.025253
v 0.025253 -0.949495 0.025253
v -0.025253 -0.949495 0.025253
v -0.025253 -0.949495 -0.025253
v 0.029570 -0.953812 -0.009181
v 0.009181 -0.953812 -0.029570
v 0.009845 -0.963873 -0.009845
v 0.009181 -0.953812 0.029570
v 0.029570 -0.953812 0.009181
v 0.009845 -0.963873 0.009845
v -0.029570 -0.953812 0.009181
v -0.009181 -0.953812 0.029570
v -0.009845 -0.963873 0.009845
v -0.009181 -0.953812 -0.029570
v -0.029570 -0.953812 -0.009181
v -0.009845 -0.963873 -0.009845
vt 0.986089 0.017172
vt 0.986089 0.420556
vt 0.668472 0.218864
vt 0.986088 0.454899
vt 0.986088 0.858283
vt 0.668472 0.656591
vt 0.345656 0.128208
vt 0.645598 0.013298
vt 0.644118 0.362635
vt 0.316939 0.362670
vt 0.018477 0.128243
vt 0.318419 0.013332
vt 0.337421 0.639729
vt 0.635882 0.874155
vt 0.335941 0.989066
vt 0.308703 0.375354
vt 0.311324 0.371318
vt 0.316025 0.375262
vt 0.635882 0.375319
vt 0.335941 0.490230
vt 0.337421 0.140893
vt 0.645598 0.512133
vt 0.644118 0.861471
vt 0.345656 0.627044
vt 0.311291 0.379024
vt 0.314318 0.366706
vt 0.319236 0.370317
vt 0.666136 0.214414
vt 0.659392 0.214567
vt 0.664033 0.210408
vt 0.661648 0.218864
vt 0.666136 0.223313
vt 0.659392 0.223161
vt 0.647943 0.508522
vt 0.649594 0.513635
vt 0.314256 0.381353
vt 0.319204 0.377759
vt 0.008761 0.490265
vt 0.006416 0.493876
vt 0.004765 0.488763
vt 0.343068 0.623374
vt 0.335155 0.624640
vt 0.340103 0.621046
vt 0.338334 0.627137
vt 0.343035 0.631081
vt 0.335124 0.632082
vt 0.340041 0.635692
vt 0.666136 0.652142
vt 0.659392 0.652294
vt 0.664033 0.648135
vt 0.661648 0.656591
vt 0.664033 0.665047
vt 0.666136 0.661040
vt 0.331944 0.629585
vt 0.643204 0.375227
vt 0.638471 0.378989
vt 0.638503 0.371283
vt 0.646415 0.370282
vt 0.641497 0.366671
vt 0.990760 0.454899
vt 0.994011 0.448399
vt 0.994966 0.454899
vt 0.989500 0.448399
vt 0.983753 0.450450
vt 0.987245 0.444102
vt 0.333596 0.992677
vt 0.331944 0.987564
vt 0.641435 0.381318
vt 0.646383 0.377724
vt 0.338334 0.128301
vt 0.343068 0.124538
vt 0.340041 0.136856
vt 0.343035 0.132245
vt 0.335124 0.133246
vt 0.994966 0.017172
vt 0.989501 0.010672
vt 0.994012 0.010672
vt 0.990760 0.017172
vt 0.983753 0.012722
vt 0.987245 0.006375
vt 0.320764 0.009721
vt 0.322415 0.014834
vt 0.335155 0.125803
vt 0.340103 0.122210
vt 0.331944 0.130749
vt 0.333596 0.493841
vt 0.331944 0.488729
vt 0.638471 0.877825
vt 0.646383 0.876560
vt 0.641435 0.880154
vt 0.643204 0.874063
vt 0.638503 0.870119
vt 0.646415 0.869118
vt 0.641497 0.865507
vt 0.981650 0.429012
vt 0.989501 0.427056
vt 0.987245 0.431353
vt 0.983753 0.425005
vt 0.994966 0.420556
vt 0.990760 0.420556
vt 0.649594 0.871615
vt 0.010242 0.140927
vt 0.007945 0.133280
vt 0.012862 0.136891
vt 0.983753 0.862733
vt 0.987245 0.869080
vt 0.981650 0.866739
vt 0.989500 0.864783
vt 0.994966 0.858283
vt 0.990760 0.858283
vt 0.647943 0.009686
vt 0.649594 0.014799
vt 0.015889 0.124573
vt 0.007976 0.125838
vt 0.012924 0.122244
vt 0.011155 0.128335
vt 0.015856 0.132280
vt 0.643010 0.508463
vt 0.014314 0.496263
vt 0.011349 0.493935
vt 0.338529 0.493900
vt 0.338529 0.992736
vt 0.333425 0.638227
vt 0.981650 0.446443
vt 0.664033 0.227320
vt 0.648114 0.862972
vt 0.333425 0.139391
vt 0.981650 0.008715
vt 0.320935 0.364171
vt 0.315831 0.009663
vt 0.640045 0.007299
vt 0.643010 0.009628
vt 0.648114 0.364136
vt 0.322415 0.372814
vt 0.659392 0.660888
vt 0.649594 0.372779
vt 0.994012 0.427056
vt 0.006246 0.139426
vt 0.994011 0.864783
vt 0.004765 0.130783
vt 0.312866 0.007334
vn -0.5774 0.5774 -0.5774
vn 0.5774 -0.5774 0.5774
vn -0.5774 -0.5774 0.5774
vn -0.5774 -0.5774 -0.5774
vn 0.5774 0.5774 0.5774
vn 0.3409 -0.4363 -0.8328
vn -0.5774 0.5774 0.5774
vn 0.5774 0.5774 -0.5774
vn 0.4363 -0.3409 -0.8328
vn 0.0000 -0.4544 -0.8908
vn -0.3409 -0.4363 -0.8328
vn -0.4544 0.0000 -0.8908
vn -0.4363 0.3409 -0.8328
vn 0.0000 0.4544 -0.8908
vn 0.3409 0.4363 -0.8328
vn 0.4544 0.0000 -0.8908
vn 0.0000 0.0000 -1.0000
vn 0.8328 -0.4363 -0.3409
vn 0.8908 0.0000 -0.4544
vn 0.8328 0.3409 -0.4363
vn 0.8908 0.4544 0.0000
vn 0.8328 0.4363 0.3409
vn 0.8908 0.0000 0.4544
vn 0.8328 -0.3409 0.4363
vn 0.8908 -0.4544 -0.0000
vn 1.0000 0.0000 0.0000
vn -0.3409 0.4363 0.8328
vn -0.4544 0.0000 0.8908
vn -0.4363 -0.3409 0.8328
vn -0.0000 -0.4544 0.8908
vn 0.3409 -0.4363 0.8328
vn 0.4544 0.0000 0.8908
vn 0.4363 0.3409 0.8328
vn -0.0000 0.4544 0.8908
vn -0.0000 0.0000 1.0000
vn -0.8328 -0.4363 0.3409
vn -0.8908 0.0000 0.4544
vn -0.8328 0.3409 0.4363
vn -0.8908 0.4544 -0.0000
vn -0.8328 0.4363 -0.3409
vn -0.8908 -0.0000 -0.4544
vn -0.8328 -0.3409 -0.4363
vn -0.8908 -0.4544 0.0000
vn -1.0000 0.0000 -0.0000
vn -0.4363 0.8328 0.3409
vn 0.0000 0.8908 0.4544
vn 0.3409 0.8328 0.4363
vn 0.4544 0.8908 0.0000
vn 0.4363 0.8328 -0.3409
vn 0.0000 0.8908 -0.4544
vn -0.3409 0.8328 -0.4363
vn -0.4544 0.8908 0.0000
vn 0.0000 1.0000 0.0000
vn 0.3409 -0.8328 -0.4363
vn 0.4544 -0.8908 0.0000
vn 0.4363 -0.8328 0.3409
vn 0.0000 -0.8908 0.4544
vn -0.3409 -0.8328 0.4363
vn -0.4544 -0.8908 0.0000
vn -0.4363 -0.8328 -0.3409
vn 0.0000 -0.8908 -0.4544
vn 0.0000 -1.0000 0.0000
vn 0.6610 0.3551 -0.6610
vn 0.7071 -0.0000 -0.7071
vn 0.6610 -0.3551 -0.6610
vn -0.3551 0.6610 0.6610
vn 0.0000 0.7071 0.7071
vn 0.3551 0.6610 0.6610
vn 0.6610 0.6610 0.3551
vn 0.7071 0.7071 -0.0000
vn 0.6610 0.6610 -0.3551
vn 0.6610 0.3551 0.6610
vn 0.7071 -0.0000 0.7071
vn 0.6610 -0.3551 0.6610
vn -0.3551 0.6610 -0.6610
vn 0.0000 0.7071 -0.7071
vn 0.3551 0.6610 -0.6610
vn -0.6610 0.3551 0.6610
vn -0.7071 0.0000 0.7071
vn -0.6610 -0.3551 0.6610
vn -0.6610 0.6610 -0.3551
vn -0.7071 0.7071 0.0000
vn -0.6610 0.6610 0.3551
vn -0.6610 0.3551 -0.6610
vn -0.7071 -0.0000 -0.7071
vn -0.6610 -0.3551 -0.6610
vn 0.3551 -0.6610 -0.6610
vn -0.0000 -0.7071 -0.7071
vn -0.3551 -0.6610 -0.6610
vn -0.6610 -0.6610 -0.3551
vn -0.7071 -0.7071 0.0000
vn -0.6610 -0.6610 0.3551
vn -0.3551 -0.6610 0.6610
vn 0.0000 -0.7071 0.7071
vn 0.3551 -0.6610 0.6610
vn 0.6610 -0.6610 0.3551
vn 0.7071 -0.7071 -0.0000
vn 0.6610 -0.6610 -0.3551
vn 0.5774 -0.5774 -0.5774
vn -0.4363 -0.3409 -0.8328
vn -0.3409 0.4363 -0.8328
vn 0.4363 0.3409 -0.8328
vn 0.8328 -0.3409 -0.4363
vn 0.8328 0.4363 -0.3409
vn 0.8328 0.3408 0.4363
vn 0.8328 -0.4363 0.3409
vn -0.4363 0.3409 0.8328
vn -0.3409 -0.4363 0.8328
vn 0.4363 -0.3409 0.8328
vn 0.3409 0.4363 0.8328
vn -0.8328 -0.3408 0.4363
vn -0.8328 0.4363 0.3409
vn -0.8328 0.3409 -0.4363
vn -0.8328 -0.4363 -0.3409
vn -0.3409 0.8328 0.4363
vn 0.4363 0.8328 0.3409
vn 0.3409 0.8328 -0.4363
vn -0.4363 0.8328 -0.3409
vn 0.4363 -0.8328 -0.3409
vn 0.3409 -0.8328 0.4363
vn -0.4363 -0.8328 0.3408
vn -0.3409 -0.8328 -0.4363
usemtl Material
s off
f 51/1/1 68/2/1 3/3/1
f 35/4/2 82/5/2 20/6/2
f 49/7/3 83/8/3 34/9/3
f 2/10/4 84/11/4 52/12/4
f 19/13/5 66/14/5 36/15/5
f 1/16/6 5/17/6 7/18/6
f 33/19/7 65/20/7 50/21/7
f 4/22/8 67/23/8 18/24/8
f 1/16/9 7/18/9 6/25/9
f 9/26/10 7/18/10 5/17/10
f 2/10/11 10/27/11 9/26/11
f 12/28/12 10/29/12 8/30/12
f 3/3/13 13/31/13 12/28/13
f 11/32/14 16/33/14 13/31/14
f 4/22/15 16/34/15 15/35/15
f 14/36/16 7/18/16 16/37/16
f 10/27/17 16/37/17 7/18/17
f 17/38/18 23/39/18 22/40/18
f 25/41/19 23/42/19 21/43/19
f 18/24/20 26/44/20 25/41/20
f 24/45/21 29/46/21 26/44/21
f 19/13/22 29/46/22 28/47/22
f 31/48/23 29/49/23 27/50/23
f 20/6/24 32/51/24 31/48/24
f 22/52/25 32/51/25 30/53/25
f 23/42/26 29/46/26 32/54/26
f 33/19/27 39/55/27 38/56/27
f 37/57/28 42/58/28 39/55/28
f 34/9/29 42/58/29 41/59/29
f 44/60/30 42/61/30 40/62/30
f 35/4/31 45/63/31 44/60/31
f 43/64/32 48/65/32 45/63/32
f 36/15/33 48/66/33 47/67/33
f 46/68/34 39/55/34 48/69/34
f 42/58/35 48/69/35 39/55/35
f 49/7/36 55/70/36 54/71/36
f 57/72/37 55/70/37 53/73/37
f 50/21/38 58/74/38 57/72/38
f 56/75/39 61/76/39 58/77/39
f 51/1/40 61/76/40 60/78/40
f 59/79/41 64/80/41 61/76/41
f 52/12/42 64/81/42 63/82/42
f 54/71/43 64/83/43 62/84/43
f 55/70/44 61/85/44 64/83/44
f 65/20/45 71/86/45 70/87/45
f 73/88/46 71/89/46 69/90/46
f 66/14/47 74/91/47 73/88/47
f 72/92/48 77/93/48 74/91/48
f 67/23/49 77/93/49 76/94/49
f 75/95/50 80/96/50 77/97/50
f 68/2/51 80/96/51 79/98/51
f 70/99/52 80/96/52 78/100/52
f 74/91/53 80/101/53 71/89/53
f 81/102/54 87/103/54 86/104/54
f 89/105/55 87/106/55 85/107/55
f 82/5/56 90/108/56 89/105/56
f 92/109/57 90/108/57 88/110/57
f 83/8/58 93/111/58 92/112/58
f 95/113/59 93/114/59 91/115/59
f 84/11/60 96/116/60 95/113/60
f 94/117/61 87/103/61 96/116/61
f 87/103/62 93/114/62 96/116/62
f 18/24/63 14/118/63 4/22/63
f 25/119/64 6/25/64 14/36/64
f 21/120/65 1/16/65 6/25/65
f 33/19/66 69/121/66 65/20/66
f 69/90/67 46/122/67 73/88/67
f 73/88/68 36/15/68 66/14/68
f 66/14/69 28/47/69 72/92/69
f 28/47/70 76/94/70 72/92/70
f 24/45/71 67/23/71 76/94/71
f 36/15/72 27/123/72 19/13/72
f 47/124/73 31/48/73 27/50/73
f 43/64/74 20/6/74 31/48/74
f 3/3/75 79/98/75 11/32/75
f 79/98/76 15/125/76 11/32/76
f 75/126/77 4/22/77 15/35/77
f 50/21/78 37/57/78 33/19/78
f 37/57/79 53/73/79 41/59/79
f 53/73/80 34/9/80 41/59/80
f 68/2/81 60/78/81 78/100/81
f 60/78/82 70/99/82 78/100/82
f 56/127/83 65/20/83 70/87/83
f 3/3/84 59/79/84 51/1/84
f 12/28/85 63/128/85 59/79/85
f 8/129/86 52/12/86 63/82/86
f 81/102/87 5/17/87 1/16/87
f 5/17/88 94/117/88 9/26/88
f 94/117/89 2/10/89 9/26/89
f 84/11/90 62/130/90 52/12/90
f 95/131/91 54/71/91 62/84/91
f 91/132/92 49/7/92 54/71/92
f 83/8/93 40/133/93 34/9/93
f 40/62/94 88/110/94 44/60/94
f 88/110/95 35/4/95 44/60/95
f 82/5/96 30/53/96 20/6/96
f 30/53/97 85/107/97 22/52/97
f 22/40/98 81/102/98 17/38/98
f 17/38/99 81/102/99 1/16/99
f 9/26/10 10/27/10 7/18/10
f 2/10/100 8/129/100 10/27/100
f 12/28/12 13/31/12 10/29/12
f 3/3/101 11/32/101 13/31/101
f 11/32/14 15/125/14 16/33/14
f 4/22/102 14/118/102 16/34/102
f 14/36/16 6/25/16 7/18/16
f 10/27/17 13/134/17 16/37/17
f 17/38/103 21/120/103 23/39/103
f 25/41/19 26/44/19 23/42/19
f 18/24/104 24/45/104 26/44/104
f 24/45/21 28/47/21 29/46/21
f 19/13/105 27/123/105 29/46/105
f 31/48/23 32/51/23 29/49/23
f 20/6/106 30/53/106 32/51/106
f 22/52/25 23/135/25 32/51/25
f 23/42/26 26/44/26 29/46/26
f 33/19/107 37/57/107 39/55/107
f 37/57/28 41/59/28 42/58/28
f 34/9/108 40/133/108 42/58/108
f 44/60/30 45/63/30 42/61/30
f 35/4/109 43/64/109 45/63/109
f 43/64/32 47/124/32 48/65/32
f 36/15/110 46/122/110 48/66/110
f 46/68/34 38/56/34 39/55/34
f 42/58/35 45/136/35 48/69/35
f 49/7/111 53/73/111 55/70/111
f 57/72/37 58/74/37 55/70/37
f 50/21/112 56/127/112 58/74/112
f 56/75/39 60/78/39 61/76/39
f 51/1/113 59/79/113 61/76/113
f 59/79/41 63/128/41 64/80/41
f 52/12/114 62/130/114 64/81/114
f 54/71/43 55/70/43 64/83/43
f 55/70/44 58/74/44 61/85/44
f 65/20/115 69/121/115 71/86/115
f 73/88/46 74/91/46 71/89/46
f 66/14/116 72/92/116 74/91/116
f 72/92/48 76/94/48 77/93/48
f 67/23/117 75/126/117 77/93/117
f 75/95/50 79/98/50 80/96/50
f 68/2/118 78/100/118 80/96/118
f 70/99/52 71/137/52 80/96/52
f 74/91/53 77/93/53 80/101/53
f 81/102/119 85/138/119 87/103/119
f 89/105/55 90/108/55 87/106/55
f 82/5/120 88/110/120 90/108/120
f 92/109/57 93/139/57 90/108/57
f 83/8/121 91/132/121 93/111/121
f 95/113/59 96/116/59 93/114/59
f 84/11/122 94/117/122 96/116/122
f 94/117/61 86/104/61 87/103/61
f 87/103/62 90/140/62 93/114/62
f 18/24/63 25/41/63 14/118/63
f 25/119/64 21/120/64 6/25/64
f 21/120/65 17/38/65 1/16/65
f 33/19/66 38/56/66 69/121/66
f 69/121/67 38/56/67 46/68/67
f 73/88/68 46/122/68 36/15/68
f 66/14/69 19/13/69 28/47/69
f 28/47/70 24/45/70 76/94/70
f 24/45/71 18/24/71 67/23/71
f 36/15/72 47/67/72 27/123/72
f 47/124/73 43/64/73 31/48/73
f 43/64/74 35/4/74 20/6/74
f 3/3/75 68/2/75 79/98/75
f 79/98/76 75/95/76 15/125/76
f 75/126/77 67/23/77 4/22/77
f 50/21/78 57/72/78 37/57/78
f 37/57/79 57/72/79 53/73/79
f 53/73/80 49/7/80 34/9/80
f 68/2/81 51/1/81 60/78/81
f 60/78/82 56/75/82 70/99/82
f 56/127/83 50/21/83 65/20/83
f 3/3/84 12/28/84 59/79/84
f 12/28/85 8/30/85 63/128/85
f 8/129/86 2/10/86 52/12/86
f 81/102/87 86/104/87 5/17/87
f 5/17/88 86/104/88 94/117/88
f 94/117/89 84/11/89 2/10/89
f 84/11/90 95/113/90 62/130/90
f 95/113/91 91/115/91 54/141/91
f 91/132/92 83/8/92 49/7/92
f 83/8/93 92/112/93 40/133/93
f 40/62/94 92/109/94 88/110/94
f 88/110/95 82/5/95 35/4/95
f 82/5/96 89/105/96 30/53/96
f 30/53/97 89/105/97 85/107/97
f 22/40/98 85/138/98 81/102/98
